# AST/ASF file generated using VICON BodyLanguage
# -----------------------------------------------
:version 1.10
:name VICON
:units
  mass 1.0
  length 0.45
  angle deg
:documentation
   .ast/.asf automatically generated from VICON data using
   VICON BodyBuilder and BodyLanguage model FoxedUp or BRILLIANT.MOD
:root
   order TX TY TZ RX RY RZ
   axis XYZ
   position 0 0 0  
   orientation 0 0 0 
:bonedata
  begin
     id 1 
     name lhipjoint
     direction 0.645422 -0.672597 0.361999 
     length 2.39934 
     axis 0 0 0  XYZ
  end
  begin
     id 2 
     name lfemur
     direction 0.34202 -0.939693 0  
     length 6.58112  
     axis 0 0 20  XYZ
    dof rx ry rz
    limits (-160.0 20.0)
           (-70.0 70.0)
           (-60.0 70.0)
  end
  begin
     id 3 
     name ltibia
     direction 0.34202 -0.939693 0   
     length 7.02673   
     axis 0 0 20   XYZ
    dof rx
    limits (-10.0 170.0)
  end
  begin
     id 4 
     name lfoot
     direction 0.0835106 -0.229444 0.969733   
     length 2.08772   
     axis -90 7.62852e-016 20   XYZ
    dof rx rz
    limits (-45.0 90.0)
           (-70.0 20.0)
  end
  begin
     id 5 
     name ltoes
     direction 1.5358e-011 -4.21925e-011 1   
     length 1.04844   
     axis -90 7.62852e-016 20   XYZ
    dof rx
    limits (-90.0 20.0)
  end
  begin
     id 6 
     name rhipjoint
     direction -0.644959 -0.672941 0.362185   
     length 2.39812  
     axis 0 0 0  XYZ 
  end
  begin
     id 7 
     name rfemur
     direction -0.34202 -0.939693 0   
     length 6.67015   
     axis 0 0 -20   XYZ
    dof rx ry rz
    limits (-160.0 20.0)
           (-70.0 70.0)
           (-70.0 60.0)
  end
  begin
     id 8 
     name rtibia
     direction -0.34202 -0.939693 0   
     length 7.35735   
     axis 0 0 -20   XYZ
    dof rx
    limits (-10.0 170.0)
 end
 begin
     id 9 
     name rfoot
     direction -0.0670769 -0.184292 0.98058   
     length 2.25469  
     axis -90 -7.62852e-016 -20   XYZ
    dof rx rz
    limits (-45.0 90.0)
           (-20.0 70.0)
  end
  begin
     id 10 
     name rtoes
     direction -1.53575e-011 -4.21908e-011 1   
     length 1.13399   
     axis -90 -7.62852e-016 -20   XYZ
    dof rx
    limits (-90.0 20.0)
  end
  begin
     id 11 
     name lowerback
     direction -0.0188328 0.993434 -0.112847   
     length 2.27656   
     axis 0 0 0   XYZ
    dof rx ry rz
    limits (-20.0 45.0)
           (-30.0 30.0)
           (-30.0 30.0)
  end
  begin
     id 12 
     name upperback
     direction 0.00983139 0.998968 -0.04435   
     length 2.28631   
     axis 0 0 0   XYZ
    dof rx ry rz
    limits (-20.0 45.0)
           (-30.0 30.0)
           (-30.0 30.0)
  end
  begin
     id 13 
     name thorax
     direction 0.0177718 0.999807 0.00833073   
     length 2.30999   
     axis 0 0 0   XYZ
    dof rx ry rz
    limits (-20.0 45.0)
           (-30.0 30.0)
           (-30.0 30.0)
  end
  begin
     id 14 
     name lowerneck
     direction -0.0835025 0.993181 0.0813558   
     length 1.39447   
     axis 0 0 0   XYZ
    dof rx ry rz
    limits (-20.0 45.0)
           (-30.0 30.0)
           (-30.0 30.0)
  end
  begin
     id 15 
     name upperneck
     direction 0.210059 0.976535 0.0474817   
     length 1.39882   
     axis 0 0 0   XYZ
    dof rx ry rz
    limits (-20.0 45.0)
           (-30.0 30.0)
           (-30.0 30.0)
  end
  begin
     id 16
     name head
     direction 0.0780891 0.996944 -0.00207154  
     length 1.41828  
     axis 0 0 0   XYZ
    dof rx ry rz
    limits (-20.0 45.0)
           (-30.0 30.0)
           (-30.0 30.0)
  end
  begin
     id 17 
     name lclavicle
     direction 0.982414 0.166355 -0.0847829  
     length 3.57922  
     axis 0 0 0   XYZ
    dof ry rz
    limits (-20.0 10.0)
           (0.0 20.0)
  end
  begin
     id 18 
     name lhumerus
     direction 1 -4.48975e-011 5.47647e-028   
     length 4.76405   
     axis -180 -30 -90   XYZ
    dof rx ry rz
    limits (-60.0 90.0)
           (-90.0 90.0)
           (-90.0 90.0)
  end
  begin
     id 19
     name lradius
     direction 1 -4.48949e-011 -8.32142e-027   
     length 3.13759   
     axis -180 -30 -90   XYZ
    dof rx
    limits (-10.0 170.0)
  end
  begin
     id 20
     name lwrist
     direction 1 -4.48978e-011 -1.32705e-026   
     length 1.56879   
     axis 9.60836e-015 90 90   XYZ
    dof ry
    limits (-180.0 0.0)
 end
  begin
     id 21 
     name lhand
     direction 1 -4.48975e-011 -2.65409e-026   
     length 0.732262   
     axis 1.69354e-014 90 90   XYZ
    dof rx rz
    limits (-90.0 90.0)
           (-45.0 45.0)
  end
  begin
     id 22 
     name lfingers
     direction 1 -4.48923e-011 -5.30819e-026   
     length 0.590368   
     axis 3.38708e-014 90 90   XYZ
    dof rx
    limits (0.0 90.0)
  end
  begin
     id 23
     name lthumb
     direction 0.707107 -6.34914e-011 0.707107   
     length 0.847654   
     axis -90 45 2.85299e-015   XYZ
    dof rx rz
    limits (-45.0 45.0)
           (-45.0 45.0)
  end
  begin
     id 24 
     name rclavicle
     direction -0.963658 0.245183 -0.106063   
     length 3.43472  
     axis 0 0 0   XYZ 
    dof ry rz
    limits (-10.0 20.0)
           (-20.0 0.0)
  end
  begin
     id 25 
     name rhumerus
     direction -1 -4.48963e-011 -1.64784e-027  
     length 5.10161   
     axis -180 30 90   XYZ
    dof rx ry rz
    limits (-90.0 60.0)
           (-90.0 90.0)
           (-90.0 90.0)
  end
  begin
     id 26 
     name rradius
     direction -1 -4.48969e-011 -2.87943e-027   
     length 3.23267   
     axis -180 30 90   XYZ
    dof rx
    limits (-10.0 170.0)
  end
  begin
     id 27 
     name rwrist
     direction -1 -4.48982e-011 -1.32705e-026   
     length 1.61633   
     axis 9.60836e-015 -90 -90   XYZ
    dof ry
    limits (-180.0 0.0)
  end
  begin
     id 28
     name rhand
     direction -1 -4.48963e-011 -2.65409e-026   
     length 0.702   
     axis 1.69354e-014 -90 -90   XYZ
    dof rx rz
    limits (-90.0 90.0)
           (-45.0 45.0)
  end
  begin
     id 29
     name rfingers
     direction -1 -4.48934e-011 -5.30819e-026   
     length 0.565971   
     axis 3.38708e-014 -90 -90   XYZ
    dof rx
    limits (0.0 90.0)
  end
  begin
     id 30
     name rthumb
     direction -0.707107 -6.34908e-011 0.707107   
     length 0.812624   
     axis -90 -45 -2.85299e-015   XYZ
    dof rx rz
    limits (-45.0 45.0)
           (-45.0 45.0)
  end
:hierarchy
  begin
    root lhipjoint rhipjoint lowerback
    lhipjoint lfemur
    lfemur ltibia
    ltibia lfoot
    lfoot ltoes
    rhipjoint rfemur
    rfemur rtibia
    rtibia rfoot
    rfoot rtoes
    lowerback upperback
    upperback thorax
    thorax lowerneck lclavicle rclavicle
    lowerneck upperneck
    upperneck head
    lclavicle lhumerus
    lhumerus lradius
    lradius lwrist
    lwrist lhand lthumb
    lhand lfingers
    rclavicle rhumerus
    rhumerus rradius
    rradius rwrist
    rwrist rhand rthumb
    rhand rfingers
  end

#!OML:ASF \\sashay\E\basketball\basketball\Project 1\Capture day 1\Session 1\Subject.ASF
:FULLY-SPECIFIED
:DEGREES
17
root -27.7229 13.1832 -6.45899 178.169 15.4623 -177.191
lowerback 32.4495 -5.41538 -8.55691
upperback 14.3362 -5.65685 1.9652
thorax 0.171996 -1.92241 8.13825
lowerneck -14.3567 2.04318 -17.747
upperneck -9.73289 7.00432 13.553
head -1.60798 4.58807 7.28429
rclavicle -6.44062e-014 1.03368e-014
rhumerus -31.636 -8.75263 -74.5537
rradius 74.5635
rwrist -25.2946
rhand -36.8972 42.8089
rfingers 7.12502
rthumb -9.9755 13.0653
lclavicle -6.44062e-014 1.03368e-014
lhumerus 41.685 -21.7334 35.2561
lradius 64.3877
lwrist 38.8786
lhand -27.0957 -104.539
lfingers 7.12502
lthumb -0.512524 225.482
rfemur -32.6568 8.01264 -11.2693
rtibia 44.2798
rfoot -2.03008 -3.46522
rtoes -55.8266
lfemur -43.8867 -7.39689 0.491248
ltibia 75.3674
lfoot -23.3903 -13.5177
ltoes -18.2433
18
root -27.1846 13.2442 -6.3853 178.525 12.5721 -177.35
lowerback 31.8996 -5.32572 -8.07097
upperback 13.6674 -5.54195 1.96745
thorax -0.43122 -1.83592 7.85475
lowerneck -13.0241 2.88414 -17.1036
upperneck -11.9252 8.04266 11.7627
head -2.5633 5.15092 6.51978
rclavicle -1.24042e-013 3.65764e-014
rhumerus -32.0251 -8.6471 -74.7999
rradius 74.6791
rwrist -25.8716
rhand -36.8424 43.5797
rfingers 7.12502
rthumb -9.92259 13.8336
lclavicle -1.24042e-013 3.65764e-014
lhumerus 43.1872 -23.3572 31.9022
lradius 65.6518
lwrist 41.54
lhand -30.8891 -107.085
lfingers 7.12502
lthumb -4.17607 222.976
rfemur -31.0286 5.03082 -9.33967
rtibia 45.004
rfoot -6.54585 -5.98235
rtoes -53.2181
lfemur -43.8767 -8.03217 2.30024
ltibia 72.6157
lfoot -22.6167 -13.8946
ltoes -21.1455
19
root -26.6516 13.3637 -6.30473 178.658 9.83261 -177.855
lowerback 31.5108 -5.14306 -8.45445
upperback 13.261 -5.47685 1.99079
thorax -0.687509 -1.81847 8.06182
lowerneck -12.7516 3.83045 -16.6109
upperneck -13.5024 9.35279 9.81935
head -3.19462 5.90427 5.75479
rclavicle -3.18055e-015 1.35174e-014
rhumerus -31.9203 -7.89664 -75.0535
rradius 74.8344
rwrist -26.4758
rhand -36.5009 44.2081
rfingers 7.12502
rthumb -9.59313 14.4465
lclavicle -3.18055e-015 1.35174e-014
lhumerus 43.8735 -23.8044 29.42
lradius 66.2826
lwrist 43.0652
lhand -31.8858 -104.855
lfingers 7.12502
lthumb -5.13845 225.227
rfemur -29.99 2.42154 -7.81737
rtibia 46.4993
rfoot -13.0752 -6.44331
rtoes -47.9571
lfemur -43.3607 -8.71531 3.46626
ltibia 69.3734
lfoot -21.3394 -13.9363
ltoes -22.3329
20
root -26.1186 13.5034 -6.21637 178.812 7.37718 -178.517
lowerback 31.291 -4.81185 -9.08469
upperback 12.861 -5.29736 1.9359
thorax -0.998173 -1.74362 8.29257
lowerneck -12.9918 4.75566 -16.5775
upperneck -14.5828 10.7523 8.23504
head -3.61956 6.73094 5.19078
rclavicle 6.44062e-014 -8.74653e-015
rhumerus -31.9169 -7.09293 -75.3022
rradius 75.1461
rwrist -27.073
rhand -36.0756 44.1325
rfingers 7.12502
rthumb -9.18275 14.3524
lclavicle 6.44062e-014 -8.74653e-015
lhumerus 44.1169 -23.6 28.1708
lradius 65.7469
lwrist 43.0846
lhand -30.1767 -97.6915
lfingers 7.12502
lthumb -3.4881 232.357
rfemur -29.4886 1.60665 -7.17822
rtibia 48.5384
rfoot -16.279 -5.50768
rtoes -47.6695
lfemur -42.7942 -9.39994 4.34629
ltibia 66.0643
lfoot -19.2464 -13.8233
ltoes -18.2951
21
root -25.5854 13.5504 -6.13907 178.901 5.31204 -179.25
lowerback 31.2965 -4.32914 -9.38544
upperback 12.4228 -4.85817 1.53317
thorax -1.54933 -1.4866 7.91809
lowerneck -13.202 5.48767 -16.6847
upperneck -15.6507 11.9449 6.97611
head -4.02229 7.47343 4.74966
rclavicle 6.44062e-014 -3.18055e-014
rhumerus -32.0787 -6.84248 -75.6681
rradius 75.1922
rwrist -27.6541
rhand -35.3633 44.2702
rfingers 7.12502
rthumb -8.49536 14.4611
lclavicle 6.44062e-014 -3.18055e-014
lhumerus 44.4236 -23.4702 27.537
lradius 64.9015
lwrist 43.8622
lhand -28.6313 -90.1229
lfingers 7.12502
lthumb -1.99564 239.907
rfemur -30.362 -1.27953 -5.88072
rtibia 51.6586
rfoot -16.5137 -7.76736
rtoes -52.7934
lfemur -42.4766 -10.1494 5.17491
ltibia 63.1942
lfoot -16.5894 -12.7707
ltoes -12.5155
22
root -25.0684 13.5868 -6.07414 178.954 3.45434 -179.889
lowerback 30.9807 -3.90249 -9.38329
upperback 12.3824 -4.27129 0.692079
thorax -1.81913 -1.13208 7.39847
lowerneck -14.0707 6.06435 -16.8983
upperneck -16.2175 13.0607 5.88992
head -4.16659 8.18733 4.41859
rclavicle 2.06736e-014 -2.70347e-014
rhumerus -31.8362 -6.80034 -76.0874
rradius 74.8445
rwrist -27.9611
rhand -35.2019 44.678
rfingers 7.12502
rthumb -8.33967 14.8626
lclavicle 2.06736e-014 -2.70347e-014
lhumerus 44.5989 -23.0538 27.2581
lradius 63.8799
lwrist 44.5847
lhand -26.0687 82.6086
lfingers 7.12502
lthumb 0.479366 247.412
rfemur -31.7066 -4.31962 -4.50137
rtibia 54.9572
rfoot -17.488 -7.20732
rtoes -51.0813
lfemur -42.1469 -10.9263 5.79545
ltibia 60.6048
lfoot -14.1232 -10.3372
ltoes -9.67887
23
root -24.5665 13.721 -6.00887 179.048 1.7601 -180.31
lowerback 30.7969 -3.44348 -9.38371
upperback 12.4082 -3.60683 0.274828
thorax -1.86422 -0.748734 6.72619
lowerneck -15.1933 6.68747 -17.3009
upperneck -16.7329 14.3465 4.73865
head -4.28089 9.01425 4.10121
rclavicle 2.78299e-014 0
rhumerus -31.2955 -6.53998 -76.3189
rradius 74.4619
rwrist -27.6648
rhand -36.1502 44.7138
rfingers 7.12502
rthumb -9.25471 14.9369
lclavicle 2.78299e-014 0
lhumerus 44.6124 -22.26 27.4771
lradius 62.4468
lwrist 44.5461
lhand -21.6485 75.5275
lfingers 7.12502
lthumb 4.74822 254.546
rfemur -32.7768 -5.97713 -2.74814
rtibia 57.8739
rfoot -18.3225 -7.61227
rtoes -47.7505
lfemur -41.4592 -11.4086 6.02555
ltibia 57.9547
lfoot -11.8162 -6.87158
ltoes -6.32623
24
root -24.0654 13.8457 -5.96117 179.235 0.329243 -180.487
lowerback 30.4038 -2.87801 -9.45531
upperback 12.4526 -2.80946 0.00682276
thorax -1.78484 -0.323977 6.21858
lowerneck -15.5875 7.58253 -17.4186
upperneck -17.6406 15.7878 3.1508
head -4.58313 9.91378 3.54535
rclavicle 3.26007e-014 -4.92986e-014
rhumerus -31.0689 -5.93178 -76.3907
rradius 74.2507
rwrist -27.2187
rhand -36.908 44.1566
rfingers 7.12502
rthumb -9.98585 14.4135
lclavicle 3.26007e-014 -4.92986e-014
lhumerus 44.2306 -21.4784 28.4194
lradius 60.5705
lwrist 43.4827
lhand -15.0829 69.0661
lfingers 7.12502
lthumb 11.0848 261.247
rfemur -33.45 -7.25417 -0.685992
rtibia 59.9687
rfoot -19.1793 -7.93743
rtoes -45.5103
lfemur -40.6247 -11.0708 6.04883
ltibia 55.3506
lfoot -9.41189 -3.47761
ltoes 0.887011
25
root -23.5788 13.9535 -5.93534 179.565 -1.50558 -180.895
lowerback 29.7503 1.65348 -7.17511
upperback 12.3513 -3.52344 0.395467
thorax -2.02842 -3.51999 5.67157
lowerneck -15.8022 8.5333 -17.0791
upperneck -18.2222 17.1034 1.46001
head -4.72375 10.6859 2.90579
rclavicle -1.00983e-013 1.11319e-014
rhumerus -31.2125 -5.16997 -76.421
rradius 74.0947
rwrist -27.6577
rhand -36.7885 43.6598
rfingers 7.12502
rthumb -9.87061 13.9111
lclavicle -1.00983e-013 1.11319e-014
lhumerus 43.4333 -20.57 30.0544
lradius 58.2328
lwrist 40.1901
lhand 8.27969 58.4838
lfingers 7.12502
lthumb 33.4929 85.3787
rfemur -33.708 -8.98825 0.999486
rtibia 61.3559
rfoot -20.1342 -8.23627
rtoes -44.5348
lfemur -40.0567 -10.4175 5.31205
ltibia 52.8537
lfoot -7.93063 -1.01704
ltoes 5.37782
26
root -23.0945 14.0776 -5.94299 178.836 -4.98137 -181.582
lowerback 30.4359 1.63261 -6.98224
upperback 12.4745 -3.53968 -0.0834251
thorax -2.24086 -3.48553 5.0689
lowerneck -15.8268 9.49405 -16.6405
upperneck -18.4592 18.3276 0.093906
head -4.76107 11.35 2.36794
rclavicle -3.4191e-014 -1.59028e-014
rhumerus -31.7093 -4.54768 -76.4802
rradius 73.9135
rwrist -28.7311
rhand -36.0969 43.4313
rfingers 7.12502
rthumb -9.2033 13.6522
lclavicle -3.4191e-014 -1.59028e-014
lhumerus 42.6872 -21.022 30.44
lradius 58.0476
lwrist 43.7229
lhand 20.2659 49.1367
lfingers 7.12502
lthumb 44.7827 72.7213
rfemur -31.7378 -11.5424 1.90327
rtibia 62.2728
rfoot -21.4638 -8.75511
rtoes -43.0707
lfemur -39.0332 -10.82 3.49543
ltibia 50.711
lfoot -7.8846 -0.271733
ltoes 2.36165
